<svg width="161" height="19" viewBox="0 0 161 19" fill="none" xmlns="http://www.w3.org/2000/svg">
<path d="M10.292 3.70801H6.69727V14H3.84961V3.70801H0.272461V1.39648H10.292V3.70801ZM14.3877 14.2197C12.8877 14.2197 11.707 13.8008 10.8457 12.9629C9.99023 12.1191 9.5625 10.9766 9.5625 9.53516C9.5625 8.04688 10.0078 6.88379 10.8984 6.0459C11.7891 5.20215 12.9932 4.78027 14.5107 4.78027C16.0049 4.78027 17.1768 5.20215 18.0264 6.0459C18.876 6.88379 19.3008 7.99414 19.3008 9.37695C19.3008 10.8711 18.8613 12.0518 17.9824 12.9189C17.1094 13.7861 15.9111 14.2197 14.3877 14.2197ZM14.458 6.90723C13.8018 6.90723 13.292 7.13281 12.9287 7.58398C12.5654 8.03516 12.3838 8.67383 12.3838 9.5C12.3838 11.2285 13.0811 12.0928 14.4756 12.0928C15.8057 12.0928 16.4707 11.2051 16.4707 9.42969C16.4707 7.74805 15.7998 6.90723 14.458 6.90723ZM29.9092 14H27.1318V12.7607H27.0967C26.4639 13.7334 25.5352 14.2197 24.3105 14.2197C23.1855 14.2197 22.2803 13.8242 21.5947 13.0332C20.9092 12.2363 20.5664 11.126 20.5664 9.70215C20.5664 8.21387 20.9443 7.02148 21.7002 6.125C22.4561 5.22852 23.4463 4.78027 24.6709 4.78027C25.8311 4.78027 26.6396 5.19629 27.0967 6.02832H27.1318V0.675781H29.9092V14ZM27.1846 9.62305V8.94629C27.1846 8.36035 27.0146 7.87402 26.6748 7.4873C26.335 7.10059 25.8926 6.90723 25.3477 6.90723C24.7324 6.90723 24.252 7.15039 23.9062 7.63672C23.5605 8.11719 23.3877 8.7793 23.3877 9.62305C23.3877 10.4141 23.5547 11.0234 23.8887 11.4512C24.2227 11.8789 24.6855 12.0928 25.2773 12.0928C25.8398 12.0928 26.2969 11.8672 26.6484 11.416C27.0059 10.9648 27.1846 10.3672 27.1846 9.62305ZM39.7354 14H37.1074V12.708H37.0723C36.4688 13.7158 35.5752 14.2197 34.3916 14.2197C33.5186 14.2197 32.8301 13.9736 32.3262 13.4814C31.8281 12.9834 31.5791 12.3213 31.5791 11.4951C31.5791 9.74902 32.6133 8.74121 34.6816 8.47168L37.125 8.14648C37.125 7.16211 36.5918 6.66992 35.5254 6.66992C34.4531 6.66992 33.4336 6.98926 32.4668 7.62793V5.53613C32.8535 5.33691 33.3809 5.16113 34.0488 5.00879C34.7227 4.85645 35.335 4.78027 35.8857 4.78027C38.4521 4.78027 39.7354 6.06055 39.7354 8.62109V14ZM37.125 10.3438V9.7373L35.4902 9.94824C34.5879 10.0654 34.1367 10.4727 34.1367 11.1699C34.1367 11.4863 34.2451 11.7471 34.4619 11.9521C34.6846 12.1514 34.9834 12.251 35.3584 12.251C35.8799 12.251 36.3047 12.0723 36.6328 11.7148C36.9609 11.3516 37.125 10.8945 37.125 10.3438ZM50.502 5L46.8457 14.7207C45.9668 17.0586 44.6426 18.2275 42.873 18.2275C42.1992 18.2275 41.6455 18.1514 41.2119 17.999V15.7842C41.5811 16.001 41.9824 16.1094 42.416 16.1094C43.1309 16.1094 43.6289 15.7725 43.9102 15.0986L44.3848 13.9824L40.7285 5H43.8047L45.4834 10.4756C45.5889 10.8154 45.6709 11.2168 45.7295 11.6797H45.7646C45.8174 11.3398 45.9141 10.9443 46.0547 10.4932L47.751 5H50.502ZM52.8574 7.78613C52.4004 7.78613 52.0195 7.64844 51.7148 7.37305C51.4102 7.0918 51.2578 6.74609 51.2578 6.33594C51.2578 5.91406 51.4131 5.56836 51.7236 5.29883C52.04 5.0293 52.4326 4.89453 52.9014 4.89453C53.376 4.89453 53.7627 5.03223 54.0615 5.30762C54.3662 5.57715 54.5186 5.91992 54.5186 6.33594C54.5186 6.76367 54.3633 7.1123 54.0527 7.38184C53.748 7.65137 53.3496 7.78613 52.8574 7.78613ZM52.8574 14.2197C52.4004 14.2197 52.0195 14.0791 51.7148 13.7979C51.4102 13.5166 51.2578 13.1709 51.2578 12.7607C51.2578 12.3389 51.4131 11.9932 51.7236 11.7236C52.04 11.4541 52.4326 11.3193 52.9014 11.3193C53.376 11.3193 53.7627 11.457 54.0615 11.7324C54.3662 12.002 54.5186 12.3447 54.5186 12.7607C54.5186 13.1885 54.3633 13.54 54.0527 13.8154C53.748 14.085 53.3496 14.2197 52.8574 14.2197ZM61.5586 13.6748V11.3018C62.4199 11.8291 63.3369 12.0928 64.3096 12.0928C65.042 12.0928 65.6133 11.9199 66.0234 11.5742C66.4395 11.2227 66.6475 10.748 66.6475 10.1504C66.6475 8.90234 65.7656 8.27832 64.002 8.27832C63.3516 8.27832 62.6016 8.32812 61.752 8.42773L62.2266 1.39648H68.8975V3.66406H64.3447L64.1689 6.18652C64.6201 6.15137 65.0098 6.13379 65.3379 6.13379C66.6328 6.13379 67.6465 6.47363 68.3789 7.15332C69.1113 7.83301 69.4775 8.74707 69.4775 9.89551C69.4775 11.167 69.041 12.207 68.168 13.0156C67.2949 13.8184 66.1113 14.2197 64.6172 14.2197C63.4043 14.2197 62.3848 14.0381 61.5586 13.6748ZM74.4609 11.7852L73.1689 16.2324H71.0068L71.9033 11.7852H74.4609ZM93.0498 14H89.9561L89.0596 11.1963H84.5771L83.6895 14H80.6133L85.2012 1.39648H88.5674L93.0498 14ZM88.4092 9.0166L87.0557 4.78027C86.9561 4.46387 86.8857 4.08594 86.8447 3.64648H86.7744C86.7451 4.01562 86.6719 4.38184 86.5547 4.74512L85.1836 9.0166H88.4092ZM102.902 14H100.134V12.6289H100.09C99.4043 13.6895 98.4873 14.2197 97.3389 14.2197C95.2529 14.2197 94.21 12.957 94.21 10.4316V5H96.9785V10.1855C96.9785 11.457 97.4824 12.0928 98.4902 12.0928C98.9883 12.0928 99.3867 11.9199 99.6855 11.5742C99.9844 11.2227 100.134 10.748 100.134 10.1504V5H102.902V14ZM114.073 12.9717C114.073 14.6416 113.59 15.9336 112.623 16.8477C111.656 17.7676 110.256 18.2275 108.422 18.2275C107.209 18.2275 106.248 18.0547 105.539 17.709V15.3711C106.465 15.9102 107.399 16.1797 108.343 16.1797C109.28 16.1797 110.007 15.9307 110.522 15.4326C111.038 14.9404 111.296 14.2695 111.296 13.4199V12.708H111.261C110.628 13.7158 109.693 14.2197 108.457 14.2197C107.309 14.2197 106.397 13.8154 105.724 13.0068C105.05 12.1982 104.713 11.1143 104.713 9.75488C104.713 8.23145 105.088 7.02148 105.838 6.125C106.588 5.22852 107.575 4.78027 108.8 4.78027C109.896 4.78027 110.716 5.20215 111.261 6.0459H111.296V5H114.073V12.9717ZM111.331 9.67578V8.96387C111.331 8.39551 111.161 7.91211 110.821 7.51367C110.487 7.10938 110.051 6.90723 109.512 6.90723C108.896 6.90723 108.413 7.14746 108.062 7.62793C107.71 8.1084 107.534 8.78516 107.534 9.6582C107.534 10.4082 107.701 11.0029 108.035 11.4424C108.369 11.876 108.826 12.0928 109.406 12.0928C109.98 12.0928 110.443 11.873 110.795 11.4336C111.152 10.9883 111.331 10.4023 111.331 9.67578ZM123.97 11.6973H129.313V14H120.929V13.0508C120.929 12.4062 121.037 11.8291 121.254 11.3193C121.471 10.8037 121.743 10.3438 122.071 9.93945C122.399 9.5293 122.757 9.16895 123.144 8.8584C123.536 8.54199 123.908 8.25781 124.26 8.00586C124.629 7.74219 124.951 7.49023 125.227 7.25C125.508 7.00977 125.742 6.77246 125.93 6.53809C126.123 6.29785 126.267 6.05762 126.36 5.81738C126.454 5.57129 126.501 5.31055 126.501 5.03516C126.501 4.49609 126.349 4.08887 126.044 3.81348C125.739 3.53809 125.273 3.40039 124.646 3.40039C123.562 3.40039 122.525 3.83105 121.535 4.69238V2.24902C122.631 1.54004 123.867 1.18555 125.244 1.18555C125.883 1.18555 126.454 1.27051 126.958 1.44043C127.468 1.60449 127.898 1.8418 128.25 2.15234C128.602 2.46289 128.868 2.84082 129.05 3.28613C129.237 3.72559 129.331 4.21777 129.331 4.7627C129.331 5.34277 129.24 5.8584 129.059 6.30957C128.883 6.76074 128.646 7.1709 128.347 7.54004C128.054 7.90918 127.714 8.24902 127.327 8.55957C126.94 8.86426 126.539 9.16016 126.123 9.44727C125.842 9.64648 125.569 9.8457 125.306 10.0449C125.048 10.2383 124.819 10.4316 124.62 10.625C124.421 10.8125 124.263 10.9971 124.146 11.1787C124.028 11.3604 123.97 11.5332 123.97 11.6973ZM135.659 14.2197C132.659 14.2197 131.159 12.1133 131.159 7.90039C131.159 5.71484 131.563 4.05078 132.372 2.9082C133.187 1.75977 134.364 1.18555 135.905 1.18555C138.835 1.18555 140.3 3.32715 140.3 7.61035C140.3 9.74316 139.898 11.3779 139.096 12.5146C138.299 13.6514 137.153 14.2197 135.659 14.2197ZM135.782 3.30371C134.581 3.30371 133.98 4.8125 133.98 7.83008C133.98 10.6719 134.569 12.0928 135.747 12.0928C136.896 12.0928 137.47 10.6279 137.47 7.69824C137.47 4.76855 136.907 3.30371 135.782 3.30371ZM148.219 1.11523V14H145.45V4.24414C145.298 4.37891 145.116 4.50781 144.905 4.63086C144.7 4.74805 144.48 4.85645 144.246 4.95605C144.012 5.0498 143.769 5.13184 143.517 5.20215C143.265 5.2666 143.016 5.31348 142.77 5.34277V3.00488C143.49 2.79395 144.17 2.52441 144.809 2.19629C145.447 1.86816 146.024 1.50781 146.54 1.11523H148.219ZM151.963 10.6074C151.963 10.2559 152.013 9.91895 152.112 9.59668C152.218 9.26855 152.373 8.9668 152.578 8.69141C152.783 8.41016 153.038 8.16113 153.343 7.94434C153.653 7.72168 154.017 7.54004 154.433 7.39941C153.794 7.08301 153.299 6.67871 152.947 6.18652C152.596 5.68848 152.42 5.1377 152.42 4.53418C152.42 4.05371 152.52 3.6084 152.719 3.19824C152.924 2.78809 153.205 2.43359 153.562 2.13477C153.92 1.83594 154.345 1.60449 154.837 1.44043C155.335 1.27051 155.877 1.18555 156.463 1.18555C157.061 1.18555 157.608 1.27051 158.106 1.44043C158.604 1.60449 159.032 1.83594 159.39 2.13477C159.753 2.42773 160.034 2.77637 160.233 3.18066C160.433 3.58496 160.532 4.02441 160.532 4.49902C160.532 5.09668 160.345 5.6416 159.97 6.13379C159.595 6.62012 159.076 7.02148 158.414 7.33789C158.824 7.47852 159.185 7.66016 159.495 7.88281C159.806 8.09961 160.066 8.34863 160.277 8.62988C160.488 8.91113 160.646 9.21875 160.752 9.55273C160.857 9.88086 160.91 10.2236 160.91 10.5811C160.91 11.1201 160.802 11.6123 160.585 12.0576C160.368 12.4971 160.061 12.8779 159.662 13.2002C159.27 13.5166 158.798 13.7627 158.247 13.9385C157.702 14.1143 157.099 14.2021 156.437 14.2021C155.786 14.2021 155.186 14.1172 154.635 13.9473C154.09 13.7715 153.618 13.5254 153.22 13.209C152.827 12.8926 152.52 12.5146 152.297 12.0752C152.074 11.6299 151.963 11.1406 151.963 10.6074ZM154.591 10.3701C154.591 10.6572 154.635 10.915 154.723 11.1436C154.811 11.3721 154.937 11.5654 155.101 11.7236C155.265 11.8818 155.458 12.0049 155.681 12.0928C155.909 12.1748 156.164 12.2158 156.445 12.2158C156.715 12.2158 156.961 12.1719 157.184 12.084C157.412 11.9961 157.608 11.873 157.772 11.7148C157.937 11.5566 158.065 11.3633 158.159 11.1348C158.253 10.9062 158.3 10.6514 158.3 10.3701C158.3 10.1182 158.256 9.87793 158.168 9.64941C158.08 9.4209 157.954 9.22461 157.79 9.06055C157.626 8.89062 157.43 8.75586 157.201 8.65625C156.979 8.55664 156.727 8.50684 156.445 8.50684C156.182 8.50684 155.936 8.55371 155.707 8.64746C155.479 8.73535 155.282 8.86426 155.118 9.03418C154.954 9.19824 154.825 9.39453 154.731 9.62305C154.638 9.85156 154.591 10.1006 154.591 10.3701ZM154.978 4.78906C154.978 5.01172 155.016 5.22266 155.092 5.42188C155.174 5.61523 155.282 5.78516 155.417 5.93164C155.552 6.07227 155.71 6.18359 155.892 6.26562C156.079 6.34766 156.275 6.38867 156.48 6.38867C156.691 6.38867 156.888 6.34766 157.069 6.26562C157.251 6.18359 157.409 6.06934 157.544 5.92285C157.685 5.77637 157.793 5.60645 157.869 5.41309C157.951 5.21973 157.992 5.01172 157.992 4.78906C157.992 4.56055 157.954 4.34961 157.878 4.15625C157.802 3.95703 157.693 3.78711 157.553 3.64648C157.418 3.5 157.257 3.38574 157.069 3.30371C156.888 3.22168 156.691 3.18066 156.48 3.18066C156.258 3.18066 156.053 3.22461 155.865 3.3125C155.684 3.39453 155.525 3.50879 155.391 3.65527C155.262 3.7959 155.159 3.96582 155.083 4.16504C155.013 4.3584 154.978 4.56641 154.978 4.78906Z" fill="#4F4F4F"/>
</svg>
