<svg width="1069" height="29" viewBox="0 0 1069 29" fill="none" xmlns="http://www.w3.org/2000/svg">
<path d="M0.768066 18.6318V17.375C0.911947 17.502 1.08333 17.6162 1.28223 17.7178C1.48535 17.8193 1.69694 17.9061 1.91699 17.978C2.14128 18.0457 2.36556 18.0986 2.58984 18.1367C2.81413 18.1748 3.02148 18.1938 3.21191 18.1938C3.86784 18.1938 4.35661 18.0732 4.67822 17.832C5.00407 17.5866 5.16699 17.2354 5.16699 16.7783C5.16699 16.5329 5.11198 16.3192 5.00195 16.1372C4.89616 15.9552 4.74805 15.7902 4.55762 15.6421C4.36719 15.4897 4.14079 15.3459 3.87842 15.2104C3.62028 15.0708 3.34098 14.9248 3.04053 14.7725C2.72314 14.6117 2.42692 14.4487 2.15186 14.2837C1.87679 14.1187 1.6377 13.9367 1.43457 13.7378C1.23145 13.5389 1.07064 13.3146 0.952148 13.0649C0.837891 12.811 0.780762 12.5148 0.780762 12.1763C0.780762 11.7616 0.871745 11.4019 1.05371 11.0972C1.23568 10.7882 1.47477 10.5343 1.771 10.3354C2.06722 10.1366 2.40365 9.98844 2.78027 9.89111C3.16113 9.79378 3.54834 9.74512 3.94189 9.74512C4.83903 9.74512 5.49284 9.85303 5.90332 10.0688V11.2686C5.36589 10.8962 4.67611 10.71 3.83398 10.71C3.60124 10.71 3.36849 10.7354 3.13574 10.7861C2.90299 10.8327 2.69564 10.911 2.51367 11.021C2.33171 11.131 2.18359 11.2728 2.06934 11.4463C1.95508 11.6198 1.89795 11.8314 1.89795 12.0811C1.89795 12.3138 1.94027 12.5148 2.0249 12.6841C2.11377 12.8534 2.24284 13.0078 2.41211 13.1475C2.58138 13.2871 2.78662 13.4225 3.02783 13.5537C3.27327 13.6849 3.55469 13.8288 3.87207 13.9854C4.19792 14.1462 4.50684 14.3154 4.79883 14.4932C5.09082 14.6709 5.34684 14.8677 5.56689 15.0835C5.78695 15.2993 5.96045 15.5384 6.0874 15.8008C6.21859 16.0632 6.28418 16.3636 6.28418 16.7021C6.28418 17.1507 6.19531 17.5316 6.01758 17.8447C5.84408 18.1536 5.6071 18.4054 5.30664 18.6001C5.01042 18.7948 4.66764 18.9344 4.27832 19.019C3.889 19.1079 3.47852 19.1523 3.04688 19.1523C2.90299 19.1523 2.72526 19.1396 2.51367 19.1143C2.30208 19.0931 2.08626 19.0592 1.86621 19.0127C1.64616 18.9704 1.43669 18.9175 1.23779 18.854C1.04313 18.7863 0.886556 18.7122 0.768066 18.6318ZM13.3555 19H12.3145V15.2549C12.3145 13.9007 11.8109 13.2236 10.8037 13.2236C10.2959 13.2236 9.86849 13.4204 9.52148 13.814C9.17448 14.2033 9.00098 14.7048 9.00098 15.3184V19H7.95996V9.37695H9.00098V13.5791H9.02637C9.52572 12.7581 10.2367 12.3477 11.1592 12.3477C12.6234 12.3477 13.3555 13.23 13.3555 14.9946V19ZM18.04 19.1523C17.0794 19.1523 16.3114 18.8498 15.7358 18.2446C15.1646 17.6353 14.8789 16.8291 14.8789 15.8262C14.8789 14.7344 15.1772 13.8817 15.7739 13.2681C16.3706 12.6545 17.1768 12.3477 18.1924 12.3477C19.1615 12.3477 19.9168 12.646 20.4585 13.2427C21.0044 13.8394 21.2773 14.6667 21.2773 15.7246C21.2773 16.7614 20.9832 17.5929 20.395 18.2192C19.811 18.8413 19.026 19.1523 18.04 19.1523ZM18.1162 13.2236C17.4476 13.2236 16.9186 13.4521 16.5293 13.9092C16.14 14.362 15.9453 14.9883 15.9453 15.7881C15.9453 16.5583 16.1421 17.1655 16.5356 17.6099C16.9292 18.0542 17.4561 18.2764 18.1162 18.2764C18.7891 18.2764 19.3053 18.0584 19.665 17.6226C20.029 17.1867 20.2109 16.5667 20.2109 15.7627C20.2109 14.9502 20.029 14.3239 19.665 13.8838C19.3053 13.4437 18.7891 13.2236 18.1162 13.2236ZM31.1289 12.5L29.1802 19H28.1011L26.7617 14.3472C26.7109 14.1694 26.6771 13.9684 26.6602 13.7441H26.6348C26.6221 13.8965 26.5776 14.0933 26.5015 14.3345L25.0479 19H24.0068L22.0391 12.5H23.1309L24.4766 17.3877C24.5189 17.5358 24.5485 17.7305 24.5654 17.9717H24.6162C24.6289 17.7855 24.667 17.5866 24.7305 17.375L26.2285 12.5H27.1807L28.5264 17.4004C28.5687 17.557 28.6004 17.7516 28.6216 17.9844H28.6724C28.6808 17.8193 28.7168 17.6247 28.7803 17.4004L30.1006 12.5H31.1289ZM32.8682 10.8496C32.682 10.8496 32.5233 10.7861 32.3921 10.6592C32.2609 10.5322 32.1953 10.3714 32.1953 10.1768C32.1953 9.9821 32.2609 9.82129 32.3921 9.69434C32.5233 9.56315 32.682 9.49756 32.8682 9.49756C33.0586 9.49756 33.2194 9.56315 33.3506 9.69434C33.486 9.82129 33.5537 9.9821 33.5537 10.1768C33.5537 10.363 33.486 10.5216 33.3506 10.6528C33.2194 10.784 33.0586 10.8496 32.8682 10.8496ZM33.376 19H32.335V12.5H33.376V19ZM40.8789 19H39.8379V15.293C39.8379 13.9134 39.3343 13.2236 38.3271 13.2236C37.8066 13.2236 37.375 13.4204 37.0322 13.814C36.6937 14.2033 36.5244 14.6963 36.5244 15.293V19H35.4834V12.5H36.5244V13.5791H36.5498C37.0407 12.7581 37.7516 12.3477 38.6826 12.3477C39.3936 12.3477 39.9373 12.5783 40.314 13.0396C40.6906 13.4966 40.8789 14.1589 40.8789 15.0264V19ZM48.3945 18.4795C48.3945 20.8662 47.252 22.0596 44.9668 22.0596C44.1628 22.0596 43.4603 21.9072 42.8594 21.6025V20.5615C43.5915 20.9678 44.2897 21.1709 44.9541 21.1709C46.5537 21.1709 47.3535 20.3203 47.3535 18.6191V17.9082H47.3281C46.833 18.7376 46.0882 19.1523 45.0938 19.1523C44.2855 19.1523 43.6338 18.8646 43.1387 18.2891C42.6478 17.7093 42.4023 16.9328 42.4023 15.9595C42.4023 14.855 42.6668 13.9769 43.1958 13.3252C43.729 12.6735 44.4569 12.3477 45.3794 12.3477C46.2554 12.3477 46.9049 12.6989 47.3281 13.4014H47.3535V12.5H48.3945V18.4795ZM47.3535 16.061V15.1025C47.3535 14.5863 47.1779 14.144 46.8267 13.7759C46.4797 13.4077 46.0459 13.2236 45.5254 13.2236C44.8822 13.2236 44.3786 13.4585 44.0146 13.9282C43.6507 14.3937 43.4688 15.0475 43.4688 15.8896C43.4688 16.6133 43.6423 17.193 43.9893 17.6289C44.3405 18.0605 44.8039 18.2764 45.3794 18.2764C45.9634 18.2764 46.4373 18.069 46.8013 17.6543C47.1694 17.2396 47.3535 16.7085 47.3535 16.061ZM59.2808 19H54.1328V18.0859H56.1895V11.0146L54.082 11.6431V10.6528L57.2305 9.69434V18.0859H59.2808V19ZM67.6597 18.9365C67.4142 19.0719 67.0905 19.1396 66.6885 19.1396C65.5501 19.1396 64.981 18.5049 64.981 17.2354V13.3887H63.8638V12.5H64.981V10.9131L66.022 10.5767V12.5H67.6597V13.3887H66.022V17.0513C66.022 17.4871 66.096 17.7982 66.2441 17.9844C66.3923 18.1706 66.6377 18.2637 66.9805 18.2637C67.2428 18.2637 67.4692 18.1917 67.6597 18.0479V18.9365ZM71.7666 19.1523C70.806 19.1523 70.0379 18.8498 69.4624 18.2446C68.8911 17.6353 68.6055 16.8291 68.6055 15.8262C68.6055 14.7344 68.9038 13.8817 69.5005 13.2681C70.0972 12.6545 70.9033 12.3477 71.9189 12.3477C72.888 12.3477 73.6434 12.646 74.1851 13.2427C74.731 13.8394 75.0039 14.6667 75.0039 15.7246C75.0039 16.7614 74.7098 17.5929 74.1216 18.2192C73.5376 18.8413 72.7526 19.1523 71.7666 19.1523ZM71.8428 13.2236C71.1742 13.2236 70.6452 13.4521 70.2559 13.9092C69.8665 14.362 69.6719 14.9883 69.6719 15.7881C69.6719 16.5583 69.8687 17.1655 70.2622 17.6099C70.6558 18.0542 71.1826 18.2764 71.8428 18.2764C72.5156 18.2764 73.0319 18.0584 73.3916 17.6226C73.7555 17.1867 73.9375 16.5667 73.9375 15.7627C73.9375 14.9502 73.7555 14.3239 73.3916 13.8838C73.0319 13.4437 72.5156 13.2236 71.8428 13.2236ZM85.4458 19H80.2979V18.0859H82.3545V11.0146L80.2471 11.6431V10.6528L83.3955 9.69434V18.0859H85.4458V19ZM89.6035 19.1523C88.7021 19.1523 87.9976 18.7651 87.4897 17.9907C86.9862 17.2163 86.7344 16.097 86.7344 14.6328C86.7344 13.0247 86.9967 11.8081 87.5215 10.9829C88.0505 10.1577 88.8122 9.74512 89.8066 9.74512C91.7109 9.74512 92.6631 11.3003 92.6631 14.4106C92.6631 15.951 92.3944 17.1274 91.8569 17.9399C91.3195 18.7482 90.5684 19.1523 89.6035 19.1523ZM89.7495 10.6274C88.4504 10.6274 87.8008 11.9456 87.8008 14.582C87.8008 17.0449 88.4377 18.2764 89.7114 18.2764C90.9683 18.2764 91.5967 17.0238 91.5967 14.5186C91.5967 11.9245 90.981 10.6274 89.7495 10.6274ZM100.534 19.1523C99.5736 19.1523 98.8055 18.8498 98.23 18.2446C97.6587 17.6353 97.373 16.8291 97.373 15.8262C97.373 14.7344 97.6714 13.8817 98.2681 13.2681C98.8647 12.6545 99.6709 12.3477 100.687 12.3477C101.656 12.3477 102.411 12.646 102.953 13.2427C103.499 13.8394 103.771 14.6667 103.771 15.7246C103.771 16.7614 103.477 17.5929 102.889 18.2192C102.305 18.8413 101.52 19.1523 100.534 19.1523ZM100.61 13.2236C99.9417 13.2236 99.4128 13.4521 99.0234 13.9092C98.6341 14.362 98.4395 14.9883 98.4395 15.7881C98.4395 16.5583 98.6362 17.1655 99.0298 17.6099C99.4233 18.0542 99.9502 18.2764 100.61 18.2764C101.283 18.2764 101.799 18.0584 102.159 17.6226C102.523 17.1867 102.705 16.5667 102.705 15.7627C102.705 14.9502 102.523 14.3239 102.159 13.8838C101.799 13.4437 101.283 13.2236 100.61 13.2236ZM108.646 10.291C108.443 10.1768 108.213 10.1196 107.955 10.1196C107.227 10.1196 106.863 10.5788 106.863 11.4971V12.5H108.386V13.3887H106.863V19H105.828V13.3887H104.717V12.5H105.828V11.4463C105.828 10.765 106.025 10.2275 106.418 9.83398C106.812 9.4362 107.303 9.2373 107.891 9.2373C108.208 9.2373 108.46 9.27539 108.646 9.35156V10.291ZM113.064 18.7778V17.6733C113.687 18.0754 114.319 18.2764 114.962 18.2764C115.606 18.2764 116.124 18.0944 116.518 17.7305C116.911 17.3665 117.108 16.8841 117.108 16.2832C117.108 15.6865 116.907 15.221 116.505 14.8867C116.103 14.5524 115.527 14.3853 114.778 14.3853C114.524 14.3853 114.048 14.4106 113.35 14.4614V9.89746H117.755V10.8369H114.334V13.5029C114.613 13.486 114.871 13.4775 115.108 13.4775C116.082 13.4775 116.835 13.723 117.368 14.2139C117.901 14.7005 118.168 15.3691 118.168 16.2197C118.168 17.0999 117.88 17.8088 117.305 18.3462C116.733 18.8836 115.948 19.1523 114.95 19.1523C114.108 19.1523 113.479 19.0275 113.064 18.7778ZM122.446 19.1523C121.545 19.1523 120.84 18.7651 120.333 17.9907C119.829 17.2163 119.577 16.097 119.577 14.6328C119.577 13.0247 119.84 11.8081 120.364 10.9829C120.893 10.1577 121.655 9.74512 122.649 9.74512C124.554 9.74512 125.506 11.3003 125.506 14.4106C125.506 15.951 125.237 17.1274 124.7 17.9399C124.162 18.7482 123.411 19.1523 122.446 19.1523ZM122.592 10.6274C121.293 10.6274 120.644 11.9456 120.644 14.582C120.644 17.0449 121.28 18.2764 122.554 18.2764C123.811 18.2764 124.439 17.0238 124.439 14.5186C124.439 11.9245 123.824 10.6274 122.592 10.6274ZM129.454 19.1523C128.553 19.1523 127.848 18.7651 127.34 17.9907C126.837 17.2163 126.585 16.097 126.585 14.6328C126.585 13.0247 126.847 11.8081 127.372 10.9829C127.901 10.1577 128.663 9.74512 129.657 9.74512C131.562 9.74512 132.514 11.3003 132.514 14.4106C132.514 15.951 132.245 17.1274 131.708 17.9399C131.17 18.7482 130.419 19.1523 129.454 19.1523ZM129.6 10.6274C128.301 10.6274 127.651 11.9456 127.651 14.582C127.651 17.0449 128.288 18.2764 129.562 18.2764C130.819 18.2764 131.447 17.0238 131.447 14.5186C131.447 11.9245 130.832 10.6274 129.6 10.6274ZM142.892 16.0103H138.303C138.32 16.7339 138.514 17.2925 138.887 17.686C139.259 18.0796 139.771 18.2764 140.423 18.2764C141.155 18.2764 141.828 18.0352 142.441 17.5527V18.5303C141.87 18.945 141.115 19.1523 140.175 19.1523C139.257 19.1523 138.535 18.8582 138.011 18.27C137.486 17.6776 137.224 16.846 137.224 15.7754C137.224 14.764 137.509 13.9409 138.081 13.3062C138.656 12.6672 139.369 12.3477 140.22 12.3477C141.07 12.3477 141.728 12.6227 142.194 13.1729C142.659 13.723 142.892 14.4868 142.892 15.4644V16.0103ZM141.826 15.1279C141.821 14.527 141.675 14.0594 141.388 13.7251C141.104 13.3908 140.708 13.2236 140.201 13.2236C139.71 13.2236 139.293 13.3993 138.95 13.7505C138.607 14.1017 138.396 14.5609 138.315 15.1279H141.826ZM149.868 19H148.827V15.293C148.827 13.9134 148.324 13.2236 147.316 13.2236C146.796 13.2236 146.364 13.4204 146.021 13.814C145.683 14.2033 145.514 14.6963 145.514 15.293V19H144.473V12.5H145.514V13.5791H145.539C146.03 12.7581 146.741 12.3477 147.672 12.3477C148.383 12.3477 148.927 12.5783 149.303 13.0396C149.68 13.4966 149.868 14.1589 149.868 15.0264V19ZM154.851 18.9365C154.606 19.0719 154.282 19.1396 153.88 19.1396C152.742 19.1396 152.172 18.5049 152.172 17.2354V13.3887H151.055V12.5H152.172V10.9131L153.213 10.5767V12.5H154.851V13.3887H153.213V17.0513C153.213 17.4871 153.287 17.7982 153.436 17.9844C153.584 18.1706 153.829 18.2637 154.172 18.2637C154.434 18.2637 154.661 18.1917 154.851 18.0479V18.9365ZM159.631 13.5537C159.449 13.4141 159.187 13.3442 158.844 13.3442C158.399 13.3442 158.027 13.5537 157.727 13.9727C157.43 14.3916 157.282 14.9629 157.282 15.6865V19H156.241V12.5H157.282V13.8394H157.308C157.456 13.3823 157.682 13.0269 157.987 12.7729C158.292 12.5148 158.632 12.3857 159.009 12.3857C159.28 12.3857 159.487 12.4154 159.631 12.4746V13.5537ZM161.294 10.8496C161.108 10.8496 160.949 10.7861 160.818 10.6592C160.687 10.5322 160.621 10.3714 160.621 10.1768C160.621 9.9821 160.687 9.82129 160.818 9.69434C160.949 9.56315 161.108 9.49756 161.294 9.49756C161.484 9.49756 161.645 9.56315 161.776 9.69434C161.912 9.82129 161.979 9.9821 161.979 10.1768C161.979 10.363 161.912 10.5216 161.776 10.6528C161.645 10.784 161.484 10.8496 161.294 10.8496ZM161.802 19H160.761V12.5H161.802V19ZM169.133 16.0103H164.544C164.561 16.7339 164.756 17.2925 165.128 17.686C165.5 18.0796 166.012 18.2764 166.664 18.2764C167.396 18.2764 168.069 18.0352 168.683 17.5527V18.5303C168.111 18.945 167.356 19.1523 166.417 19.1523C165.498 19.1523 164.777 18.8582 164.252 18.27C163.727 17.6776 163.465 16.846 163.465 15.7754C163.465 14.764 163.75 13.9409 164.322 13.3062C164.897 12.6672 165.61 12.3477 166.461 12.3477C167.312 12.3477 167.97 12.6227 168.435 13.1729C168.901 13.723 169.133 14.4868 169.133 15.4644V16.0103ZM168.067 15.1279C168.063 14.527 167.917 14.0594 167.629 13.7251C167.345 13.3908 166.95 13.2236 166.442 13.2236C165.951 13.2236 165.534 13.3993 165.191 13.7505C164.849 14.1017 164.637 14.5609 164.557 15.1279H168.067ZM170.32 18.7651V17.6479C170.887 18.0669 171.512 18.2764 172.193 18.2764C173.107 18.2764 173.564 17.9717 173.564 17.3623C173.564 17.1888 173.524 17.0428 173.443 16.9243C173.367 16.8016 173.261 16.6937 173.126 16.6006C172.995 16.5075 172.838 16.425 172.656 16.353C172.479 16.2769 172.286 16.1986 172.079 16.1182C171.791 16.0039 171.537 15.8896 171.317 15.7754C171.101 15.6569 170.919 15.5257 170.771 15.3818C170.627 15.2337 170.517 15.0666 170.441 14.8804C170.369 14.6942 170.333 14.4762 170.333 14.2266C170.333 13.9219 170.403 13.6532 170.542 13.4204C170.682 13.1834 170.868 12.9867 171.101 12.8301C171.334 12.6693 171.598 12.5487 171.895 12.4683C172.195 12.3879 172.504 12.3477 172.821 12.3477C173.384 12.3477 173.888 12.445 174.332 12.6396V13.6934C173.854 13.3802 173.304 13.2236 172.682 13.2236C172.487 13.2236 172.311 13.2469 172.155 13.2935C171.998 13.3358 171.863 13.3971 171.749 13.4775C171.639 13.5579 171.552 13.6553 171.488 13.7695C171.429 13.8796 171.399 14.0023 171.399 14.1377C171.399 14.307 171.429 14.4487 171.488 14.563C171.552 14.6772 171.643 14.7788 171.761 14.8677C171.88 14.9565 172.024 15.0369 172.193 15.1089C172.362 15.1808 172.555 15.2591 172.771 15.3438C173.058 15.4538 173.316 15.568 173.545 15.6865C173.773 15.8008 173.968 15.932 174.129 16.0801C174.29 16.224 174.412 16.3911 174.497 16.5815C174.586 16.772 174.63 16.9984 174.63 17.2607C174.63 17.5824 174.558 17.8617 174.415 18.0986C174.275 18.3356 174.087 18.5324 173.85 18.689C173.613 18.8455 173.34 18.9619 173.031 19.0381C172.722 19.1143 172.398 19.1523 172.06 19.1523C171.391 19.1523 170.811 19.0233 170.32 18.7651Z" fill="black"/>
<path d="M1020.5 2C1020.5 1.17157 1021.17 0.5 1022 0.5H1067C1067.83 0.5 1068.5 1.17157 1068.5 2V27C1068.5 27.8284 1067.83 28.5 1067 28.5H1022C1021.17 28.5 1020.5 27.8284 1020.5 27V2Z" stroke="#CED0DA"/>
<path d="M1039.53 19H1038.22L1033.54 11.7446C1033.42 11.5627 1033.32 11.3722 1033.25 11.1733H1033.21C1033.24 11.368 1033.26 11.7848 1033.26 12.4238V19H1032.19V9.89746H1033.58L1038.13 17.0386C1038.33 17.3348 1038.45 17.5379 1038.5 17.6479H1038.53C1038.49 17.3856 1038.46 16.9391 1038.46 16.3086V9.89746H1039.53V19ZM1047 16.0103H1042.41C1042.43 16.7339 1042.62 17.2925 1043 17.686C1043.37 18.0796 1043.88 18.2764 1044.53 18.2764C1045.27 18.2764 1045.94 18.0352 1046.55 17.5527V18.5303C1045.98 18.945 1045.23 19.1523 1044.29 19.1523C1043.37 19.1523 1042.65 18.8582 1042.12 18.27C1041.6 17.6776 1041.33 16.846 1041.33 15.7754C1041.33 14.764 1041.62 13.9409 1042.19 13.3062C1042.77 12.6672 1043.48 12.3477 1044.33 12.3477C1045.18 12.3477 1045.84 12.6227 1046.3 13.1729C1046.77 13.723 1047 14.4868 1047 15.4644V16.0103ZM1045.94 15.1279C1045.93 14.527 1045.79 14.0594 1045.5 13.7251C1045.21 13.3908 1044.82 13.2236 1044.31 13.2236C1043.82 13.2236 1043.4 13.3993 1043.06 13.7505C1042.72 14.1017 1042.51 14.5609 1042.43 15.1279H1045.94ZM1053.33 12.5L1051.15 15.7881L1053.29 19H1052.08L1050.8 16.8926C1050.72 16.7614 1050.63 16.5964 1050.52 16.3975H1050.49C1050.47 16.4355 1050.37 16.6006 1050.2 16.8926L1048.89 19H1047.69L1049.91 15.8135L1047.79 12.5H1049L1050.26 14.7217C1050.35 14.8867 1050.44 15.056 1050.53 15.2295H1050.56L1052.18 12.5H1053.33ZM1057.56 18.9365C1057.32 19.0719 1057 19.1396 1056.59 19.1396C1055.46 19.1396 1054.89 18.5049 1054.89 17.2354V13.3887H1053.77V12.5H1054.89V10.9131L1055.93 10.5767V12.5H1057.56V13.3887H1055.93V17.0513C1055.93 17.4871 1056 17.7982 1056.15 17.9844C1056.3 18.1706 1056.54 18.2637 1056.89 18.2637C1057.15 18.2637 1057.37 18.1917 1057.56 18.0479V18.9365Z" fill="black"/>
<path d="M888.5 2C888.5 1.17157 889.172 0.5 890 0.5H958C958.828 0.5 959.5 1.17157 959.5 2V27C959.5 27.8284 958.828 28.5 958 28.5H890C889.172 28.5 888.5 27.8284 888.5 27V2Z" stroke="#CED0DA"/>
<path d="M958.5 0.5H1020.5V28.5H958.5V0.5Z" stroke="#CED0DA"/>
<path fill-rule="evenodd" clip-rule="evenodd" d="M959 0H990V29H959V0Z" fill="#1875F0"/>
<path d="M900.26 15.5596V19H899.193V9.89746H901.694C902.668 9.89746 903.421 10.1344 903.954 10.6084C904.492 11.0824 904.76 11.751 904.76 12.6143C904.76 13.4775 904.462 14.1842 903.865 14.7344C903.273 15.2845 902.471 15.5596 901.459 15.5596H900.26ZM900.26 10.8623V14.5947H901.377C902.113 14.5947 902.674 14.4276 903.059 14.0933C903.448 13.7547 903.643 13.2786 903.643 12.665C903.643 11.4632 902.932 10.8623 901.51 10.8623H900.26ZM909.73 13.5537C909.549 13.4141 909.286 13.3442 908.943 13.3442C908.499 13.3442 908.127 13.5537 907.826 13.9727C907.53 14.3916 907.382 14.9629 907.382 15.6865V19H906.341V12.5H907.382V13.8394H907.407C907.555 13.3823 907.782 13.0269 908.086 12.7729C908.391 12.5148 908.732 12.3857 909.108 12.3857C909.379 12.3857 909.587 12.4154 909.73 12.4746V13.5537ZM916.084 16.0103H911.495C911.512 16.7339 911.707 17.2925 912.079 17.686C912.451 18.0796 912.964 18.2764 913.615 18.2764C914.347 18.2764 915.02 18.0352 915.634 17.5527V18.5303C915.062 18.945 914.307 19.1523 913.368 19.1523C912.449 19.1523 911.728 18.8582 911.203 18.27C910.678 17.6776 910.416 16.846 910.416 15.7754C910.416 14.764 910.702 13.9409 911.273 13.3062C911.848 12.6672 912.562 12.3477 913.412 12.3477C914.263 12.3477 914.921 12.6227 915.386 13.1729C915.852 13.723 916.084 14.4868 916.084 15.4644V16.0103ZM915.018 15.1279C915.014 14.527 914.868 14.0594 914.58 13.7251C914.297 13.3908 913.901 13.2236 913.393 13.2236C912.902 13.2236 912.485 13.3993 912.143 13.7505C911.8 14.1017 911.588 14.5609 911.508 15.1279H915.018ZM922.775 12.5L920.185 19H919.163L916.7 12.5H917.843L919.493 17.2227C919.616 17.5697 919.692 17.8722 919.722 18.1304H919.747C919.789 17.8045 919.857 17.5104 919.95 17.248L921.677 12.5H922.775ZM924.432 10.8496C924.245 10.8496 924.087 10.7861 923.956 10.6592C923.824 10.5322 923.759 10.3714 923.759 10.1768C923.759 9.9821 923.824 9.82129 923.956 9.69434C924.087 9.56315 924.245 9.49756 924.432 9.49756C924.622 9.49756 924.783 9.56315 924.914 9.69434C925.049 9.82129 925.117 9.9821 925.117 10.1768C925.117 10.363 925.049 10.5216 924.914 10.6528C924.783 10.784 924.622 10.8496 924.432 10.8496ZM924.939 19H923.898V12.5H924.939V19ZM929.764 19.1523C928.803 19.1523 928.035 18.8498 927.459 18.2446C926.888 17.6353 926.603 16.8291 926.603 15.8262C926.603 14.7344 926.901 13.8817 927.498 13.2681C928.094 12.6545 928.9 12.3477 929.916 12.3477C930.885 12.3477 931.64 12.646 932.182 13.2427C932.728 13.8394 933.001 14.6667 933.001 15.7246C933.001 16.7614 932.707 17.5929 932.119 18.2192C931.535 18.8413 930.75 19.1523 929.764 19.1523ZM929.84 13.2236C929.171 13.2236 928.642 13.4521 928.253 13.9092C927.864 14.362 927.669 14.9883 927.669 15.7881C927.669 16.5583 927.866 17.1655 928.259 17.6099C928.653 18.0542 929.18 18.2764 929.84 18.2764C930.513 18.2764 931.029 18.0584 931.389 17.6226C931.753 17.1867 931.935 16.5667 931.935 15.7627C931.935 14.9502 931.753 14.3239 931.389 13.8838C931.029 13.4437 930.513 13.2236 929.84 13.2236ZM939.92 19H938.879V17.9717H938.854C938.422 18.7588 937.753 19.1523 936.848 19.1523C935.299 19.1523 934.524 18.2298 934.524 16.3848V12.5H935.559V16.2197C935.559 17.5908 936.084 18.2764 937.133 18.2764C937.641 18.2764 938.058 18.0902 938.384 17.7178C938.714 17.3411 938.879 16.8503 938.879 16.2451V12.5H939.92V19ZM941.634 18.7651V17.6479C942.201 18.0669 942.825 18.2764 943.506 18.2764C944.42 18.2764 944.877 17.9717 944.877 17.3623C944.877 17.1888 944.837 17.0428 944.757 16.9243C944.681 16.8016 944.575 16.6937 944.439 16.6006C944.308 16.5075 944.152 16.425 943.97 16.353C943.792 16.2769 943.599 16.1986 943.392 16.1182C943.104 16.0039 942.85 15.8896 942.63 15.7754C942.415 15.6569 942.233 15.5257 942.084 15.3818C941.941 15.2337 941.831 15.0666 941.754 14.8804C941.682 14.6942 941.646 14.4762 941.646 14.2266C941.646 13.9219 941.716 13.6532 941.856 13.4204C941.996 13.1834 942.182 12.9867 942.415 12.8301C942.647 12.6693 942.912 12.5487 943.208 12.4683C943.508 12.3879 943.817 12.3477 944.135 12.3477C944.698 12.3477 945.201 12.445 945.646 12.6396V13.6934C945.167 13.3802 944.617 13.2236 943.995 13.2236C943.8 13.2236 943.625 13.2469 943.468 13.2935C943.312 13.3358 943.176 13.3971 943.062 13.4775C942.952 13.5579 942.865 13.6553 942.802 13.7695C942.743 13.8796 942.713 14.0023 942.713 14.1377C942.713 14.307 942.743 14.4487 942.802 14.563C942.865 14.6772 942.956 14.7788 943.075 14.8677C943.193 14.9565 943.337 15.0369 943.506 15.1089C943.676 15.1808 943.868 15.2591 944.084 15.3438C944.372 15.4538 944.63 15.568 944.858 15.6865C945.087 15.8008 945.282 15.932 945.442 16.0801C945.603 16.224 945.726 16.3911 945.811 16.5815C945.899 16.772 945.944 16.9984 945.944 17.2607C945.944 17.5824 945.872 17.8617 945.728 18.0986C945.588 18.3356 945.4 18.5324 945.163 18.689C944.926 18.8455 944.653 18.9619 944.344 19.0381C944.035 19.1143 943.712 19.1523 943.373 19.1523C942.704 19.1523 942.125 19.0233 941.634 18.7651Z" fill="black"/>
<path d="M978.265 19H973.117V18.0859H975.174V11.0146L973.066 11.6431V10.6528L976.215 9.69434V18.0859H978.265V19Z" fill="white"/>
<path d="M1007.09 19H1001.61V18.0732L1004.26 15.4136C1004.94 14.7365 1005.42 14.1737 1005.71 13.7251C1006 13.2723 1006.15 12.7899 1006.15 12.2778C1006.15 11.7531 1006 11.3468 1005.7 11.0591C1005.4 10.7713 1004.97 10.6274 1004.42 10.6274C1003.6 10.6274 1002.82 10.9744 1002.08 11.6685V10.5767C1002.79 10.0223 1003.62 9.74512 1004.56 9.74512C1005.37 9.74512 1006.01 9.96517 1006.48 10.4053C1006.94 10.8454 1007.18 11.4357 1007.18 12.1763C1007.18 12.7603 1007.02 13.3315 1006.69 13.8901C1006.37 14.4445 1005.79 15.1343 1004.96 15.9595L1002.86 18.0352V18.0605H1007.09V19Z" fill="#979797"/>
</svg>
